# xmcd
#
# Track frame offsets:
#	150
#	15248
#	32237
#	52407
#	66604
#	84055
#	102362
#	120217
#	137208
#	154759
#	170643
#	186107
#	198282
#	213513
#	228560
#	245412
#	259764
#	276445
#
# Disc length: 3965 seconds
#
# Revision: 0
# Processed by: cddbd v1.5.1PL0 Copyright (c) Steve Scherf et al.
# Submitted via: EasyCDDAExtractor 4.6.9.1
#
DISCID=040f7b12
DTITLE=Shania Twain - Send It With Love
DYEAR=2005
DGENRE=Country
TTITLE0=Wild And Wicked
TTITLE1=Two Hearts, One Love
TTITLE2=Lost My Heart
TTITLE3=Bite My Lip
TTITLE4=(Don't Gimme That) Once Over
TTITLE5=Hate To Love
TTITLE6=Send It With Love
TTITLE7=Luv Eyes
TTITLE8=Rhythm Made Me Do It
TTITLE9=Half Breed
TTITLE10=It's Alright
TTITLE11=Love
TTITLE12=I Ain't Gonna Eat My Heart Out Anymore
TTITLE13=All Fired Up, No Place To Go
TTITLE14=The Heart Is Blind
TTITLE15=For The Love Of Him
TTITLE16=It's Alright (Club Mix)
TTITLE17=For The Love Of Him (Dance Mix)
EXTD=
EXTT0=
EXTT1=
EXTT2=
EXTT3=
EXTT4=
EXTT5=
EXTT6=
EXTT7=
EXTT8=
EXTT9=
EXTT10=
EXTT11=
EXTT12=
EXTT13=
EXTT14=
EXTT15=
EXTT16=
EXTT17=
PLAYORDER=
